# xmcd CD database file
#
# Track frame offsets:
#	150
#	13182
#	23386
#	38260
#	52700
#	65308
#	76802
#	89083
#	96632
#	105599
#	115120
#	129115
#	140895
#	150327
#	159345
#	171118
#	183193
#	191197
#	201271
#
# Disc length: 2840 seconds
#
# Revision: 6
# Processed by: cddbd v1.5.2PL0 Copyright (c) Steve Scherf et al.
# Submitted via: CDex 1.81
#
DISCID=e80b1613
DTITLE=Country Greats - Country Greats CD 1
DYEAR=2008
DGENRE=Country
TTITLE0=01 - Kenny Rogers - Ruby, Don't Take Your Love To Town
TTITLE1=02 - Dolly Parton - Release Me
TTITLE2=03 - Willie Nelson - The Face Of A Fighter
TTITLE3=04 - Jeannie C. Riley - Harper Valley PTA
TTITLE4=05 - Johnny Cash - Folsom Prison Blues
TTITLE5=06 - Patsy Cline - Walkin' After Midnight
TTITLE6=07 - Hank Williams - Cold, Cold Heart
TTITLE7=08 - Faron Young - Your Cheating Heart
TTITLE8=09 - Jerry Lee Lewis - Jambalaya
TTITLE9=10 - Loretta Lynn - You Ain't Woman Enough
TTITLE10=11 - Rita Remington - Angel Of The Morning
TTITLE11=12 - Waylon Jennings - Crying
TTITLE12=13 - Dave Dudley - Six Days On The Road
TTITLE13=14 - Frankie Laine - Rawhide
TTITLE14=15 - Roy Acuff - Wabash Cannonball
TTITLE15=16 - Flatt and Scruggs - Foggy Mountain Breakdown
TTITLE16=17 - Bob Wills and His Texas Playboys - Cotton Eyed Joe
TTITLE17=18 - Mickey Gilley - Lonely Wine
TTITLE18=19 - Skeeter Davis - End Of The World
EXTD=YEAR: 2008
EXTT0=
EXTT1=
EXTT2=
EXTT3=
EXTT4=
EXTT5=
EXTT6=
EXTT7=
EXTT8=
EXTT9=
EXTT10=
EXTT11=
EXTT12=
EXTT13=
EXTT14=
EXTT15=
EXTT16=
EXTT17=
EXTT18=
PLAYORDER=
